<svg width="3402" height="1900" xmlns="http://www.w3.org/2000/svg" xmlns:xlink="http://www.w3.org/1999/xlink" overflow="hidden"><defs><clipPath id="clip0"><rect x="532" y="288" width="3402" height="1900"/></clipPath></defs><g clip-path="url(#clip0)" transform="translate(-532 -288)"><rect x="535.5" y="291.5" width="3395" height="1893" stroke="#000000" stroke-width="6.875" stroke-miterlimit="8" fill="none"/><rect x="1099.5" y="723.5" width="2202" height="1029" stroke="#000000" stroke-width="6.875" stroke-miterlimit="8" fill="none"/><rect x="1167.5" y="769.5" width="367" height="114" stroke="#000000" stroke-width="6.875" stroke-miterlimit="8" fill="none"/><text font-family="DengXian,DengXian_MSFontService,sans-serif" font-weight="400" font-size="55" transform="matrix(1 0 0 1 1183.72 846)">返回成员介绍</text><path d="M1951.5 1012.5C1951.5 883.818 2056.04 779.5 2185 779.5 2313.96 779.5 2418.5 883.818 2418.5 1012.5 2418.5 1141.18 2313.96 1245.5 2185 1245.5 2056.04 1245.5 1951.5 1141.18 1951.5 1012.5Z" stroke="#000000" stroke-width="4.58333" stroke-miterlimit="8" fill="#FFFFFF" fill-rule="evenodd"/><text font-family="DengXian,DengXian_MSFontService,sans-serif" font-weight="400" font-size="110" transform="matrix(1 0 0 1 2072.93 1048)">头像<tspan font-size="73" x="37.0242" y="287">名字</tspan></text><path d="M1263 1438 3136.03 1438" stroke="#000000" stroke-width="2.29167" stroke-miterlimit="8" fill="none" fill-rule="evenodd"/><text font-family="DengXian,DengXian_MSFontService,sans-serif" font-weight="400" font-size="73" transform="matrix(1 0 0 1 2051.58 1563)">介绍文本</text></g></svg>