<svg width="3541" height="2081" xmlns="http://www.w3.org/2000/svg" xmlns:xlink="http://www.w3.org/1999/xlink" overflow="hidden"><defs><clipPath id="clip0"><rect x="357" y="171" width="3541" height="2081"/></clipPath></defs><g clip-path="url(#clip0)" transform="translate(-357 -171)"><rect x="359.5" y="173.5" width="3536" height="2076" stroke="#000000" stroke-width="4.58333" stroke-miterlimit="8" fill="none"/><rect x="1357.5" y="785.5" width="1540" height="905" stroke="#000000" stroke-width="4.58333" stroke-miterlimit="8" fill="none"/><rect x="765.5" y="1887.5" width="567" height="155" stroke="#000000" stroke-width="4.58333" stroke-miterlimit="8" fill="none"/><text font-family="DengXian,DengXian_MSFontService,sans-serif" font-weight="400" font-size="183" transform="matrix(1 0 0 1 1848.48 1182)">Exitless<tspan font-size="183" x="126.615" y="220">Day</tspan><tspan font-size="83" x="-1006.31" y="813">开始新游戏</tspan></text><rect x="1457.5" y="1887.5" width="567" height="155" stroke="#000000" stroke-width="4.58333" stroke-miterlimit="8" fill="none"/><text font-family="DengXian,DengXian_MSFontService,sans-serif" font-weight="400" font-size="83" transform="matrix(1 0 0 1 1569.88 1992)">读取存档</text><rect x="2141.5" y="1889.5" width="567" height="155" stroke="#000000" stroke-width="4.58333" stroke-miterlimit="8" fill="none"/><text font-family="DengXian,DengXian_MSFontService,sans-serif" font-weight="400" font-size="83" transform="matrix(1 0 0 1 2263.89 1995)">查看成就</text><rect x="2809.5" y="1887.5" width="567" height="155" stroke="#000000" stroke-width="4.58333" stroke-miterlimit="8" fill="none"/><text font-family="DengXian,DengXian_MSFontService,sans-serif" font-weight="400" font-size="83" transform="matrix(1 0 0 1 2932.15 1992)">退出游戏</text></g></svg>