<svg width="3402" height="1900" xmlns="http://www.w3.org/2000/svg" xmlns:xlink="http://www.w3.org/1999/xlink" overflow="hidden"><defs><clipPath id="clip0"><rect x="532" y="288" width="3402" height="1900"/></clipPath></defs><g clip-path="url(#clip0)" transform="translate(-532 -288)"><rect x="535.5" y="291.5" width="3395" height="1893" stroke="#000000" stroke-width="6.875" stroke-miterlimit="8" fill="none"/><rect x="937.5" y="768.5" width="718" height="1030" stroke="#000000" stroke-width="6.875" stroke-miterlimit="8" fill="none"/><path d="M1063.5 1050C1063.5 921.041 1168.04 816.5 1297 816.5 1425.96 816.5 1530.5 921.041 1530.5 1050 1530.5 1178.96 1425.96 1283.5 1297 1283.5 1168.04 1283.5 1063.5 1178.96 1063.5 1050Z" stroke="#000000" stroke-width="4.58333" stroke-miterlimit="8" fill="#FFFFFF" fill-rule="evenodd"/><text font-family="DengXian,DengXian_MSFontService,sans-serif" font-weight="400" font-size="110" transform="matrix(1 0 0 1 1185.35 1086)">头像<tspan font-size="73" x="37.0243" y="287">名字</tspan></text><path d="M995 1498 1604.55 1498" stroke="#000000" stroke-width="2.29167" stroke-miterlimit="8" fill="none" fill-rule="evenodd"/><text font-family="DengXian,DengXian_MSFontService,sans-serif" font-weight="400" font-size="73" transform="matrix(1 0 0 1 1163.99 1615)">介绍文本<tspan font-size="64" x="72.0333" y="-153">分工</tspan></text><rect x="1724.5" y="766.5" width="717" height="1030" stroke="#000000" stroke-width="6.875" stroke-miterlimit="8" fill="none"/><path d="M1850.5 1048C1850.5 919.041 1955.04 814.5 2084 814.5 2212.96 814.5 2317.5 919.041 2317.5 1048 2317.5 1176.96 2212.96 1281.5 2084 1281.5 1955.04 1281.5 1850.5 1176.96 1850.5 1048Z" stroke="#000000" stroke-width="4.58333" stroke-miterlimit="8" fill="#FFFFFF" fill-rule="evenodd"/><text font-family="DengXian,DengXian_MSFontService,sans-serif" font-weight="400" font-size="110" transform="matrix(1 0 0 1 1972.09 1084)">头像<tspan font-size="73" x="37.0243" y="287">名字</tspan></text><path d="M1782 1496 2391.55 1496" stroke="#000000" stroke-width="2.29167" stroke-miterlimit="8" fill="none" fill-rule="evenodd"/><text font-family="DengXian,DengXian_MSFontService,sans-serif" font-weight="400" font-size="73" transform="matrix(1 0 0 1 1950.74 1613)">介绍文本<tspan font-size="64" x="72.0335" y="-153">分工</tspan></text><rect x="2510.5" y="766.5" width="717" height="1030" stroke="#000000" stroke-width="6.875" stroke-miterlimit="8" fill="none"/><path d="M2636.5 1048C2636.5 919.041 2741.04 814.5 2870 814.5 2998.96 814.5 3103.5 919.041 3103.5 1048 3103.5 1176.96 2998.96 1281.5 2870 1281.5 2741.04 1281.5 2636.5 1176.96 2636.5 1048Z" stroke="#000000" stroke-width="4.58333" stroke-miterlimit="8" fill="#FFFFFF" fill-rule="evenodd"/><text font-family="DengXian,DengXian_MSFontService,sans-serif" font-weight="400" font-size="110" transform="matrix(1 0 0 1 2758.1 1084)">头像<tspan font-size="73" x="37.0242" y="287">名字</tspan></text><path d="M2568 1496 3177.55 1496" stroke="#000000" stroke-width="2.29167" stroke-miterlimit="8" fill="none" fill-rule="evenodd"/><text font-family="DengXian,DengXian_MSFontService,sans-serif" font-weight="400" font-size="73" transform="matrix(1 0 0 1 2736.75 1613)">介绍文本<tspan font-size="64" x="72.0335" y="-153">分工</tspan></text><rect x="937.5" y="1834.5" width="2541" height="19.9999" stroke="#000000" stroke-width="6.875" stroke-miterlimit="8" fill="none"/><text font-family="DengXian,DengXian_MSFontService,sans-serif" font-weight="400" font-size="73" transform="matrix(1 0 0 1 2050.86 2034)">Exitless<tspan font-size="73" x="242.917" y="0">Day</tspan><tspan font-size="64" x="31.533" y="-1401">返回主页</tspan></text><rect x="2034.5" y="564.5" width="357" height="103" stroke="#000000" stroke-width="6.875" stroke-miterlimit="8" fill="none"/><text font-family="DengXian,DengXian_MSFontService,sans-serif" font-weight="400" font-size="83" transform="matrix(1 0 0 1 2015.27 481)">BITVentures</text></g></svg>