<svg width="3402" height="1900" xmlns="http://www.w3.org/2000/svg" xmlns:xlink="http://www.w3.org/1999/xlink" overflow="hidden"><defs><clipPath id="clip0"><rect x="532" y="288" width="3402" height="1900"/></clipPath></defs><g clip-path="url(#clip0)" transform="translate(-532 -288)"><rect x="535.5" y="291.5" width="3395" height="1893" stroke="#000000" stroke-width="6.875" stroke-miterlimit="8" fill="none"/><text font-family="DengXian,DengXian_MSFontService,sans-serif" font-weight="400" font-size="183" transform="matrix(1 0 0 1 1273.35 949)">成就</text><rect x="1750.5" y="904.5" width="364" height="226" stroke="#000000" stroke-width="6.875" stroke-miterlimit="8" fill="none"/><text font-family="DengXian,DengXian_MSFontService,sans-serif" font-weight="400" font-size="83" transform="matrix(1 0 0 1 1832.45 1046)">成就<tspan font-size="83" x="165" y="0">1</tspan></text><rect x="1750.5" y="1178.5" width="364" height="226" stroke="#000000" stroke-width="6.875" stroke-miterlimit="8" fill="none"/><text font-family="DengXian,DengXian_MSFontService,sans-serif" font-weight="400" font-size="83" transform="matrix(1 0 0 1 1832.45 1320)">成就<tspan font-size="83" x="165" y="0">2</tspan></text><rect x="1750.5" y="1452.5" width="364" height="226" stroke="#000000" stroke-width="6.875" stroke-miterlimit="8" fill="none"/><text font-family="DengXian,DengXian_MSFontService,sans-serif" font-weight="400" font-size="83" transform="matrix(1 0 0 1 1832.45 1594)">成就<tspan font-size="83" x="165" y="0">3</tspan></text><rect x="2202.5" y="904.5" width="364" height="226" stroke="#000000" stroke-width="6.875" stroke-miterlimit="8" fill="none"/><text font-family="DengXian,DengXian_MSFontService,sans-serif" font-weight="400" font-size="83" transform="matrix(1 0 0 1 2284.48 1046)">成就<tspan font-size="83" x="165" y="0">4</tspan></text><rect x="2202.5" y="1178.5" width="364" height="226" stroke="#000000" stroke-width="6.875" stroke-miterlimit="8" fill="none"/><text font-family="DengXian,DengXian_MSFontService,sans-serif" font-weight="400" font-size="83" transform="matrix(1 0 0 1 2284.48 1320)">成就<tspan font-size="83" x="165" y="0">5</tspan></text><rect x="2202.5" y="1452.5" width="364" height="226" stroke="#000000" stroke-width="6.875" stroke-miterlimit="8" fill="none"/><text font-family="DengXian,DengXian_MSFontService,sans-serif" font-weight="400" font-size="83" transform="matrix(1 0 0 1 2284.48 1594)">成就<tspan font-size="83" x="165" y="0">6</tspan></text><rect x="2635.5" y="904.5" width="364" height="226" stroke="#000000" stroke-width="6.875" stroke-miterlimit="8" fill="none"/><text font-family="DengXian,DengXian_MSFontService,sans-serif" font-weight="400" font-size="83" transform="matrix(1 0 0 1 2718.14 1046)">成就<tspan font-size="83" x="165" y="0">7</tspan></text><rect x="2635.5" y="1178.5" width="364" height="226" stroke="#000000" stroke-width="6.875" stroke-miterlimit="8" fill="none"/><text font-family="DengXian,DengXian_MSFontService,sans-serif" font-weight="400" font-size="83" transform="matrix(1 0 0 1 2718.14 1320)">成就<tspan font-size="83" x="165" y="0">8</tspan></text><rect x="2635.5" y="1452.5" width="364" height="226" stroke="#000000" stroke-width="6.875" stroke-miterlimit="8" fill="none"/><text font-family="DengXian,DengXian_MSFontService,sans-serif" font-weight="400" font-size="83" transform="matrix(1 0 0 1 2718.14 1594)">成就<tspan font-size="83" x="165" y="0">9</tspan></text><rect x="2999.5" y="1814.5" width="569" height="159" stroke="#000000" stroke-width="6.875" stroke-miterlimit="8" fill="none"/><text font-family="DengXian,DengXian_MSFontService,sans-serif" font-weight="400" font-size="83" transform="matrix(1 0 0 1 3204.79 1920)">返回</text></g></svg>