<svg width="3541" height="2081" xmlns="http://www.w3.org/2000/svg" xmlns:xlink="http://www.w3.org/1999/xlink" overflow="hidden"><defs><clipPath id="clip0"><rect x="357" y="171" width="3541" height="2081"/></clipPath></defs><g clip-path="url(#clip0)" transform="translate(-357 -171)"><rect x="359.5" y="173.5" width="3536" height="2076" stroke="#000000" stroke-width="4.58333" stroke-miterlimit="8" fill="none"/><text font-family="DengXian,DengXian_MSFontService,sans-serif" font-weight="400" font-size="183" transform="matrix(1 0 0 1 1511.22 784)">登录<tspan font-size="183" x="417.083" y="0">/ Sign In</tspan></text><rect x="1448.5" y="909.5" width="1459" height="135" stroke="#000000" stroke-width="4.58333" stroke-miterlimit="8" fill="none"/><rect x="1448.5" y="1056.5" width="1459" height="135" stroke="#000000" stroke-width="4.58333" stroke-miterlimit="8" fill="none"/><rect x="1448.5" y="1520.5" width="1459" height="135" stroke="#000000" stroke-width="4.58333" stroke-miterlimit="8" fill="none"/><text font-family="DengXian,DengXian_MSFontService,sans-serif" font-weight="400" font-size="83" transform="matrix(1 0 0 1 1926.36 1614)">登录<tspan font-size="83" x="232.031" y="0">Sign In</tspan></text><rect x="1448.5" y="1717.5" width="1459" height="135" stroke="#000000" stroke-width="4.58333" stroke-miterlimit="8" fill="none"/><text font-family="DengXian,DengXian_MSFontService,sans-serif" font-weight="400" font-size="83" transform="matrix(1 0 0 1 1913.59 1805)">注册<tspan font-size="83" x="232.031" y="0">Sign Up</tspan><tspan font-size="83" x="-399.353" y="-798">用户名</tspan><tspan font-size="83" x="-84.8218" y="-798">Username</tspan><tspan font-size="83" x="-398.977" y="-651">密码</tspan><tspan font-size="83" x="-166.945" y="-651">Password</tspan></text></g></svg>