<svg width="3541" height="2081" xmlns="http://www.w3.org/2000/svg" xmlns:xlink="http://www.w3.org/1999/xlink" overflow="hidden"><defs><clipPath id="clip0"><rect x="357" y="171" width="3541" height="2081"/></clipPath></defs><g clip-path="url(#clip0)" transform="translate(-357 -171)"><rect x="359.5" y="173.5" width="3536" height="2076" stroke="#000000" stroke-width="4.58333" stroke-miterlimit="8" fill="none"/><text font-family="DengXian,DengXian_MSFontService,sans-serif" font-weight="400" font-size="183" transform="matrix(1 0 0 1 1595.5 922)">读取</text><rect x="1862.5" y="1892.5" width="567" height="155" stroke="#000000" stroke-width="4.58333" stroke-miterlimit="8" fill="none"/><text font-family="DengXian,DengXian_MSFontService,sans-serif" font-weight="400" font-size="83" transform="matrix(1 0 0 1 2064.99 1997)">返回</text><rect x="1633.5" y="1059.5" width="1059" height="155" stroke="#000000" stroke-width="4.58333" stroke-miterlimit="8" fill="none"/><text font-family="DengXian,DengXian_MSFontService,sans-serif" font-weight="400" font-size="83" transform="matrix(1 0 0 1 1778.38 1163)">自动存档<tspan font-size="83" x="397.031" y="0">Autosave</tspan></text><rect x="1633.5" y="1232.5" width="1059" height="155" stroke="#000000" stroke-width="4.58333" stroke-miterlimit="8" fill="none"/><text font-family="DengXian,DengXian_MSFontService,sans-serif" font-weight="400" font-size="83" transform="matrix(1 0 0 1 1778.38 1336)">存档<tspan font-size="83" x="165" y="0">1</tspan></text><rect x="1633.5" y="1418.5" width="1059" height="155" stroke="#000000" stroke-width="4.58333" stroke-miterlimit="8" fill="none"/><text font-family="DengXian,DengXian_MSFontService,sans-serif" font-weight="400" font-size="83" transform="matrix(1 0 0 1 1778.38 1522)">存档<tspan font-size="83" x="165" y="0">2</tspan></text><path d="M1719.5 1077.5 1690 1132.5 1660.5 1077.5Z" stroke="#000000" stroke-width="4.58333" stroke-miterlimit="8" fill="#FFFFFF" fill-rule="evenodd"/><path d="M1719.5 1254.5 1690 1309.5 1660.5 1254.5Z" stroke="#000000" stroke-width="4.58333" stroke-miterlimit="8" fill="#FFFFFF" fill-rule="evenodd"/><path d="M1719.5 1441.5 1690 1496.5 1660.5 1441.5Z" stroke="#000000" stroke-width="4.58333" stroke-miterlimit="8" fill="#FFFFFF" fill-rule="evenodd"/></g></svg>