<svg version="1.1" xmlns="http://www.w3.org/2000/svg" xmlns:xlink="http://www.w3.org/1999/xlink" width="275.99007" height="275.99005" viewBox="0,0,275.99007,275.99005"><g transform="translate(-102.00497,-42.00497)"><g data-paper-data="{&quot;isPaintingLayer&quot;:true}" fill="#d2ebff" fill-rule="nonzero" stroke-linecap="butt" stroke-linejoin="miter" stroke-miterlimit="10" stroke-dasharray="" stroke-dashoffset="0" style="mix-blend-mode: normal"><path d="M103.25497,306.00305c0,-47.12666 0,-234.1985 0,-255.78496c0,-3.99616 3.61889,-6.96311 8.34285,-6.96311c23.13954,0 206.24486,0 253.86179,0c7.18521,0 11.28543,2.96696 11.28543,6.96311c0,21.4899 0,206.98731 0,255.1439c0,7.24642 -3.61482,11.38303 -10.00329,11.38303c-45.34741,0 -230.45037,0 -254.50285,0c-5.05722,0 -8.98391,-3.89315 -8.98391,-10.74197z" stroke="#303a75" stroke-width="2.5"/><path d="M126.10577,284.9472c0,-39.25156 0,-195.06277 0,-213.04198c0,-3.32837 3.01413,-5.79948 6.94872,-5.79948c19.2728,0 171.78033,0 211.44026,0c5.98448,0 9.3996,2.47113 9.3996,5.79948c0,17.89886 0,172.39865 0,212.50811c0,6.03548 -3.01072,9.48085 -8.33167,9.48085c-37.76969,0 -191.94098,0 -211.97419,0c-4.21215,0 -7.48266,-3.24259 -7.48266,-8.94693z" stroke="#4688c4" stroke-width="2"/></g></g></svg>