<svg version="1.1" xmlns="http://www.w3.org/2000/svg" xmlns:xlink="http://www.w3.org/1999/xlink" width="823.80798" height="319.80978" viewBox="0,0,823.80798,319.80978"><g transform="translate(171.90399,-20.09511)"><g data-paper-data="{&quot;isPaintingLayer&quot;:true}" fill-rule="nonzero" stroke="#303a75" stroke-width="2" stroke-linejoin="miter" stroke-miterlimit="10" stroke-dasharray="" stroke-dashoffset="0" style="mix-blend-mode: normal"><path d="M-168.55431,297.54049c17.45574,-28.43282 121.51924,-197.93672 147.69097,-240.56661c3.81093,-6.20745 10.38655,-9.7247 18.49577,-9.7247c85.79287,0 584.93601,0 640.84916,0c10.00362,0 14.71923,4.83337 11.33454,10.80598c-14.06099,24.81183 -109.72008,193.61086 -136.88357,241.54329c-4.55078,8.03029 -13.30632,12.66815 -24.39046,12.66815c-99.20895,0 -595.52465,0 -649.73799,0c-9.45076,0 -12.20893,-6.82511 -7.35833,-14.72605z" fill="#d2ebff" stroke-linecap="butt"/><path d="M37.37506,47.58028l-24.0193,40.78527h-52.72409c0,0 18.09303,-30.57039 21.78059,-36.80103c1.25529,-2.12096 4.73776,-4.25264 7.04239,-4.24033c7.50524,0.04013 47.92042,0.25609 47.92042,0.25609z" fill="#3e82ce" stroke-linecap="round"/><path d="M-0.7935,24.23588c-2.4609,4.17869 -14.21317,24.13429 -14.21317,24.13429c0,0 -26.28458,0 -31.53879,0c-1.75039,0 -2.74491,-1.27631 -1.57418,-3.25435c3.50007,-5.91377 10.71231,-18.09972 12.54868,-21.20264c0.83419,-1.40952 3.14857,-2.82621 4.68019,-2.81804c3.71426,0.01988 19.5565,0.10452 27.4046,0.14641c2.69096,0.0144 3.55611,1.5282 2.69273,2.99429z" fill="#3e82ce" stroke-linecap="round"/><path d="M453.99897,308.4585c2.86375,-4.8627 15.08351,-25.61211 19.80978,-33.63743c1.16668,-1.98106 3.27905,-3.18676 4.89194,-3.18676c6.54886,0 49.70889,0 49.70889,0c0,0 -17.13537,31.47507 -20.82293,37.7057c-1.25529,2.12096 -5.69542,3.34796 -7.99999,3.33561c-6.07415,-0.03247 -33.70428,-0.18013 -44.02045,-0.23525c-2.43054,-0.01298 -3.89998,-0.02084 -3.89998,-0.02084c0,0 1.16163,-1.97251 2.33271,-3.96104z" fill="#3e82ce" stroke-linecap="round"/><path d="M489.83478,335.76412c1.82789,-3.10377 8.78189,-14.9119 12.23853,-20.78127c1.19702,-2.03262 3.25469,-3.353 5.30629,-3.353c7.24514,0 24.11242,0 28.20715,0c1.75039,0 2.74491,1.27629 1.57418,3.25434c-3.50007,5.91377 -10.71231,18.09974 -12.54868,21.20264c-0.83417,1.40952 -3.14857,2.82621 -4.6802,2.81804c-3.71426,-0.01988 -19.5565,-0.1045 -27.4046,-0.14641c-2.69096,-0.0144 -3.5561,-1.52822 -2.69273,-2.99429z" fill="#3e82ce" stroke-linecap="round"/><path d="M423.66069,286.86351c0,0 -490.33363,0 -540.79479,0c-8.21209,0 -10.55781,-6.17505 -6.36951,-13.04424c15.7474,-25.8273 112.43362,-184.40201 112.43362,-184.40201" fill="none" stroke-linecap="round"/><path d="M60.91056,72.79496c0,0 485.31752,0 535.77867,0c8.21209,0 10.55783,6.17506 6.36951,13.04425c-15.7474,25.82731 -105.74546,184.40201 -105.74546,184.40201" fill="none" stroke-linecap="round"/></g></g></svg>